<svg width="20" height="20" viewBox="0 0 20 20" fill="none" xmlns="http://www.w3.org/2000/svg">
<path d="M4.66699 4.50049H15.333C15.4249 4.50049 15.4998 4.57463 15.5 4.6665C15.5 4.75852 15.425 4.8335 15.333 4.8335H14.167V16.0005C14.1668 16.4606 13.7932 16.8335 13.333 16.8335H6.66699C6.20686 16.8335 5.83318 16.4606 5.83301 16.0005V4.8335H4.66699C4.57495 4.8335 4.5 4.75855 4.5 4.6665C4.50018 4.57461 4.57506 4.50049 4.66699 4.50049ZM6.16699 16.5005H13.833V4.8335H6.16699V16.5005ZM7.33301 1.8335H12.667C12.7589 1.83367 12.833 1.90855 12.833 2.00049C12.8328 2.09227 12.7588 2.16633 12.667 2.1665H7.33301C7.24122 2.16633 7.16717 2.09227 7.16699 2.00049C7.16699 1.90855 7.24111 1.83367 7.33301 1.8335Z" fill="#09090B" stroke="#09090B"/>
</svg>
